<svg width="52" height="52" viewBox="0 0 52 52" fill="none" xmlns="http://www.w3.org/2000/svg">
<path fill-rule="evenodd" clip-rule="evenodd" d="M24.3868 0.208405C21.6701 0.951519 19.8892 3.59894 20.2599 6.34333C20.3241 6.81904 20.3638 7.22126 20.348 7.23701C20.2742 7.31039 13.2768 10.6626 13.1972 10.6626C13.1714 10.6626 12.8555 10.3725 12.4952 10.018C10.6163 8.16929 7.73391 7.83537 5.42199 9.19853C4.78062 9.57674 3.68605 10.7794 3.31564 11.513C2.54139 13.0462 2.55339 15.0497 3.34642 16.6607C4.02972 18.0487 5.3773 19.1505 6.94172 19.6005C7.68933 19.8156 9.72276 19.776 10.2287 19.5366C10.6047 19.3585 10.4772 19.1969 11.9873 21.7649C12.9571 23.4139 13.1201 23.7542 13.0258 23.9325C12.8257 24.3108 8.26649 31.33 8.13053 31.469C8.02355 31.5786 7.92516 31.5735 7.61079 31.4427C6.07652 30.804 3.66387 31.1869 2.26099 32.2918C0.778821 33.459 0.00266036 35.0191 7.00246e-06 36.8365C-0.00455677 39.8947 2.22214 42.2919 5.30545 42.548C6.24824 42.6263 7.41413 42.414 8.2216 42.0168C8.9432 41.6621 9.92219 40.8772 10.272 40.3732C10.4299 40.1456 10.6216 39.9577 10.698 39.9555C10.8306 39.9517 12.0361 40.4447 15.9189 42.0903C16.8821 42.4986 18.2193 43.0579 18.8906 43.3333C19.5619 43.6086 20.4758 43.9949 20.9214 44.1916L21.7316 44.5493L21.6758 45.8358C21.6404 46.6539 21.6653 47.3014 21.7444 47.6141C22.2765 49.7197 24.1763 51.52 26.2807 51.9127C27.7253 52.1823 29.3857 51.818 30.6688 50.95C32.0834 49.993 33.1089 48.0367 33.1089 46.2957C33.1089 45.6133 32.8492 44.4881 32.5263 43.771L32.2479 43.1531L32.9953 42.1074C33.4063 41.5323 34.5399 39.9674 35.5145 38.6298C36.489 37.2922 37.386 36.0546 37.508 35.8796C37.7623 35.5143 40.1168 32.2811 41.5497 30.3295C42.0833 29.6026 43.104 28.1928 43.8178 27.1967L45.1156 25.3856L46.3578 25.3379C47.4473 25.296 47.6925 25.2504 48.3527 24.9668C50.0777 24.2257 51.16 23.0465 51.74 21.2764C52.5867 18.6924 51.3039 15.7567 48.7892 14.5239C48.0383 14.1559 46.8485 13.8383 46.2202 13.8383C45.1767 13.8383 43.6516 14.3919 42.6786 15.1237C42.163 15.5114 42.0784 15.5428 41.8792 15.4197C41.7568 15.344 40.5341 14.4722 39.1623 13.4825C37.7905 12.4928 36.494 11.5605 36.2812 11.4107C35.5338 10.8846 32.9466 9.01962 32.3091 8.5474C31.9548 8.28486 31.5609 7.99916 31.4338 7.91246C31.209 7.75914 31.207 7.73873 31.3604 7.17325C31.4472 6.8534 31.5187 6.16019 31.5194 5.63289C31.5215 4.0055 31.0713 2.90976 29.9103 1.71642C29.0702 0.852973 28.5015 0.511868 27.3811 0.199417C26.4165 -0.0694701 25.3917 -0.0664038 24.3868 0.208405ZM21.6403 9.39414L22.088 9.92335L21.0562 11.5353C20.4887 12.4219 19.7761 13.528 19.4727 13.9932C19.1694 14.4585 18.5265 15.4451 18.0441 16.1857C17.4959 17.0273 17.1221 17.5046 17.0472 17.4584C16.9812 17.4178 16.6645 17.214 16.3434 17.0055C16.0224 16.7969 15.3981 16.3922 14.956 16.1062L14.1524 15.5861L14.1404 14.2081C14.1339 13.4502 14.1134 12.6895 14.095 12.5176C14.0562 12.1558 13.7078 12.3535 18.1471 10.2178C19.6935 9.47376 21.0114 8.86503 21.0756 8.86503C21.1398 8.86503 21.3939 9.10315 21.6403 9.39414ZM32.2521 10.6255C33.2799 11.3612 34.4075 12.1734 34.7577 12.4306C35.849 13.2318 39.6133 15.9395 40.1706 16.3241C41.1792 17.0201 41.115 16.8769 40.8162 17.7636C40.4561 18.8322 40.3804 19.7382 40.5744 20.6546C40.6607 21.0617 40.712 21.4268 40.6885 21.4659C40.6649 21.5051 40.4911 21.5701 40.3021 21.6105C40.1129 21.6508 38.4303 22.0827 36.5626 22.5703C34.6951 23.0578 33.1374 23.4566 33.101 23.4566C33.0647 23.4566 32.9336 23.183 32.8096 22.8487C32.6858 22.5143 32.3479 21.9284 32.059 21.5468C30.3394 19.2758 27.1865 18.5697 24.6832 19.8949C24.3375 20.0779 23.8121 20.4483 23.5158 20.7179L22.9768 21.2081L21.6929 20.4008C19.4193 18.971 18.6784 18.4859 18.6784 18.4271C18.6784 18.3836 23.3689 11.0777 23.5176 10.8896C23.5338 10.8691 23.8905 10.9582 24.3104 11.0876C24.957 11.2869 25.2464 11.3158 26.2011 11.2758C26.8211 11.2498 27.4238 11.1776 27.5406 11.1153C27.6573 11.0529 28.0726 10.8484 28.4635 10.6608C28.8544 10.4731 29.4276 10.0896 29.7371 9.80852C30.0467 9.52747 30.3188 9.29538 30.3417 9.29274C30.3645 9.29009 31.2242 9.88983 32.2521 10.6255ZM14.521 17.8744C15.0855 18.2353 15.7009 18.6439 15.8884 18.7827L16.2294 19.0349L16.0316 19.316C15.9228 19.4707 15.4681 20.163 15.0211 20.8544C14.2207 22.0924 14.2058 22.1079 14.0405 21.8728C13.8847 21.6512 13.0937 20.296 12.4083 19.0764L12.1156 18.5557L12.717 17.8904C13.0479 17.5245 13.3582 17.2236 13.4066 17.2217C13.455 17.2198 13.9565 17.5135 14.521 17.8744ZM19.6472 21.1434C20.6613 21.7903 21.6165 22.3945 21.7699 22.4861L22.0488 22.6526L21.845 23.2397C21.5512 24.086 21.4889 25.2523 21.6878 26.1826C22.1333 28.2666 23.5787 29.8792 25.6099 30.558L26.4792 30.8487L26.5068 35.715L26.5344 40.5814L26.2415 40.6452C26.0804 40.6803 25.8101 40.7528 25.6409 40.8062C25.4716 40.8595 25.2977 40.9031 25.2541 40.9031C25.2107 40.9031 24.9623 40.5343 24.7019 40.0837C24.4417 39.633 23.8037 38.5369 23.2844 37.6479C22.765 36.759 22.2381 35.855 22.1136 35.6389C21.9891 35.4229 21.4931 34.5801 21.0114 33.7659C19.699 31.5476 15.4403 24.2799 15.3022 24.0229C15.1969 23.8266 15.2957 23.6223 16.0949 22.3852C16.5971 21.6078 17.153 20.7459 17.3304 20.4696C17.5077 20.1933 17.6867 19.9673 17.728 19.9673C17.7694 19.9673 18.6331 20.4966 19.6472 21.1434ZM42.1278 23.6186C42.4445 23.9403 42.862 24.3011 43.0557 24.4202C43.2493 24.5395 43.4077 24.6882 43.4077 24.7507C43.4077 24.8133 43.2244 25.1069 43.0004 25.403C42.7764 25.6991 42.0262 26.7265 41.3334 27.6861C40.6405 28.6456 39.7958 29.8114 39.4562 30.2766C38.721 31.2838 36.6507 34.137 36.3497 34.5577C35.9815 35.0725 34.7924 36.7049 34.3849 37.2552C34.1695 37.546 33.3322 38.6995 32.5241 39.8186C31.1123 41.7738 31.0463 41.8471 30.8367 41.6954C30.3836 41.3675 29.3724 40.8922 28.8381 40.756L28.2835 40.6147L28.2559 35.6957L28.2283 30.7768L28.7081 30.7051C28.9718 30.6657 29.5597 30.4479 30.0144 30.2212C31.6999 29.3807 32.9784 27.5872 33.2058 25.7441L33.2718 25.2089L33.9617 25.0209C34.8246 24.7857 41.4248 23.0523 41.4981 23.0416C41.5277 23.0373 41.8111 23.2969 42.1278 23.6186ZM14.5233 26.107C14.7071 26.4017 14.8575 26.6595 14.8575 26.6799C14.8575 26.7002 15.2944 27.4465 15.8282 28.3382C16.3621 29.2298 16.9177 30.1735 17.063 30.4352C17.3156 30.8905 18.0564 32.1567 19.4757 34.5589C19.8364 35.1696 20.4095 36.145 20.7494 36.7265C21.3156 37.6957 22.0965 39.0233 23.1439 40.7974C23.7242 41.7804 23.7237 41.7762 23.3213 42.1825C23.1256 42.3803 22.8854 42.6582 22.7876 42.8003L22.6097 43.0588L20.7236 42.2543C19.6863 41.8119 17.5719 40.9168 16.025 40.265C14.4781 39.6134 12.8091 38.905 12.3162 38.691L11.4197 38.302L11.4109 36.9327C11.4061 36.1772 11.3493 35.4449 11.2841 35.2991C11.2191 35.1537 11.0796 34.8206 10.9739 34.5589C10.7509 34.0068 10.3435 33.3861 9.8739 32.8829L9.54318 32.5286L11.7881 29.05C13.0228 27.1368 14.0681 25.5714 14.111 25.5714C14.1539 25.5714 14.3394 25.8124 14.5233 26.107Z" fill="black"/>
</svg>
